HIERARCHY
ROOT hip
{
  OFFSET 0 0 0
  CHANNELS 6 Xposition Yposition Zposition Zrotation Yrotation Xrotation
  JOINT abdomen
  {
    OFFSET 0 20.6881 -0.73152
    CHANNELS 3 Zrotation Xrotation Yrotation
    JOINT chest
    {
      OFFSET 0 11.7043 -0.48768
      CHANNELS 3 Zrotation Xrotation Yrotation
      JOINT neck
      {
        OFFSET 0 22.1894 -2.19456
        CHANNELS 3 Zrotation Xrotation Yrotation
        JOINT head
        {
          OFFSET -0.24384 7.07133 1.2192
          CHANNELS 3 Zrotation Xrotation Yrotation
          JOINT leftEye
          {
            OFFSET 4.14528 8.04674 8.04672
            CHANNELS 3 Zrotation Xrotation Yrotation
            End Site
            {
              OFFSET 1 0 0
            }
          }
          JOINT rightEye
          {
            OFFSET -3.6576 8.04674 8.04672
            CHANNELS 3 Zrotation Xrotation Yrotation
            End Site
            {
              OFFSET 1 0 0
            }
          }
        }
      }
      JOINT rCollar
      {
        OFFSET -2.68224 19.2634 -4.8768
        CHANNELS 3 Zrotation Xrotation Yrotation
        JOINT rShldr
        {
          OFFSET -8.77824 -1.95073 1.46304
          CHANNELS 3 Zrotation Xrotation Yrotation
          JOINT rForeArm
          {
            OFFSET -28.1742 -1.7115 0.48768
            CHANNELS 3 Zrotation Xrotation Yrotation
            JOINT rHand
            {
              OFFSET -22.5879 0.773209 7.07136
              CHANNELS 3 Zrotation Xrotation Yrotation
              JOINT rThumb1
              {
                OFFSET -1.2192 -0.487915 3.41376
                CHANNELS 3 Zrotation Xrotation Yrotation
                JOINT rThumb2
                {
                  OFFSET -3.37035 -0.52449 3.41376
                  CHANNELS 3 Zrotation Xrotation Yrotation
                  End Site
                  {
                    OFFSET -1.78271 -1.18214 1.43049
                  }
                }
              }
              JOINT rIndex1
              {
                OFFSET -7.75947 0.938293 5.60832
                CHANNELS 3 Zrotation Xrotation Yrotation
                JOINT rIndex2
                {
                  OFFSET -2.54057 -0.884171 1.56538
                  CHANNELS 3 Zrotation Xrotation Yrotation
                  End Site
                  {
                    OFFSET -1.62519 -0.234802 1.16502
                  }
                }
              }
              JOINT rMid1
              {
                OFFSET -8.24714 1.18213 3.41376
                CHANNELS 3 Zrotation Xrotation Yrotation
                JOINT rMid2
                {
                  OFFSET -3.10165 -0.590103 1.0647
                  CHANNELS 3 Zrotation Xrotation Yrotation
                  End Site
                  {
                    OFFSET -2.48547 -0.328903 0.83742
                  }
                }
              }
              JOINT rRing1
              {
                OFFSET -8.82822 0.546677 1.51678
                CHANNELS 3 Zrotation Xrotation Yrotation
                JOINT rRing2
                {
                  OFFSET -2.60934 -0.819778 -0.0198488
                  CHANNELS 3 Zrotation Xrotation Yrotation
                  End Site
                  {
                    OFFSET -2.33842 -0.294052 0.168128
                  }
                }
              }
              JOINT rPinky1
              {
                OFFSET -8.27202 -0.0477905 -0.4584
                CHANNELS 3 Zrotation Xrotation Yrotation
                JOINT rPinky2
                {
                  OFFSET -1.82734 -0.647385 -0.700984
                  CHANNELS 3 Zrotation Xrotation Yrotation
                  End Site
                  {
                    OFFSET -1.69225 -0.51767 -0.607171
                  }
                }
              }
            }
          }
        }
      }
      JOINT lCollar
      {
        OFFSET 2.68224 19.2634 -4.8768
        CHANNELS 3 Zrotation Xrotation Yrotation
        JOINT lShldr
        {
          OFFSET 8.77824 -1.95073 1.46304
          CHANNELS 3 Zrotation Xrotation Yrotation
          JOINT lForeArm
          {
            OFFSET 28.1742 -1.7115 0.48768
            CHANNELS 3 Zrotation Xrotation Yrotation
            JOINT lHand
            {
              OFFSET 22.5879 0.773209 7.07136
              CHANNELS 3 Zrotation Xrotation Yrotation
              JOINT lThumb1
              {
                OFFSET 1.2192 -0.487915 3.41376
                CHANNELS 3 Zrotation Xrotation Yrotation
                JOINT lThumb2
                {
                  OFFSET 3.37035 -0.52449 3.41376
                  CHANNELS 3 Zrotation Xrotation Yrotation
                  End Site
                  {
                    OFFSET 1.78271 -1.18214 1.43049
                  }
                }
              }
              JOINT lIndex1
              {
                OFFSET 7.75947 0.938293 5.60832
                CHANNELS 3 Zrotation Xrotation Yrotation
                JOINT lIndex2
                {
                  OFFSET 2.54057 -0.884171 1.56538
                  CHANNELS 3 Zrotation Xrotation Yrotation
                  End Site
                  {
                    OFFSET 1.62519 -0.234802 1.16502
                  }
                }
              }
              JOINT lMid1
              {
                OFFSET 8.24714 1.18213 3.41376
                CHANNELS 3 Zrotation Xrotation Yrotation
                JOINT lMid2
                {
                  OFFSET 3.10165 -0.590103 1.0647
                  CHANNELS 3 Zrotation Xrotation Yrotation
                  End Site
                  {
                    OFFSET 2.48547 -0.328903 0.83742
                  }
                }
              }
              JOINT lRing1
              {
                OFFSET 8.82822 0.546677 1.51678
                CHANNELS 3 Zrotation Xrotation Yrotation
                JOINT lRing2
                {
                  OFFSET 2.60934 -0.819778 -0.0198488
                  CHANNELS 3 Zrotation Xrotation Yrotation
                  End Site
                  {
                    OFFSET 2.33842 -0.294052 0.168128
                  }
                }
              }
              JOINT lPinky1
              {
                OFFSET 8.27202 -0.0477905 -0.4584
                CHANNELS 3 Zrotation Xrotation Yrotation
                JOINT lPinky2
                {
                  OFFSET 1.82734 -0.647385 -0.700984
                  CHANNELS 3 Zrotation Xrotation Yrotation
                  End Site
                  {
                    OFFSET 1.69225 -0.51767 -0.607171
                  }
                }
              }
            }
          }
        }
      }
    }
  }
  JOINT rButtock
  {
    OFFSET -8.77824 4.35084 1.2192
    CHANNELS 3 Zrotation Xrotation Yrotation
    JOINT rThigh
    {
      OFFSET 0 -1.70687 -2.19456
      CHANNELS 3 Zrotation Xrotation Yrotation
      JOINT rShin
      {
        OFFSET 0 -36.8199 0.73152
        CHANNELS 3 Zrotation Xrotation Yrotation
        JOINT rFoot
        {
          OFFSET 0.73152 -45.1104 -5.12064
          CHANNELS 3 Zrotation Xrotation Yrotation
          End Site
          {
            OFFSET -1.1221 -3.69964 12.103
          }
        }
      }
    }
  }
  JOINT lButtock
  {
    OFFSET 8.77824 4.35084 1.2192
    CHANNELS 3 Zrotation Xrotation Yrotation
    JOINT lThigh
    {
      OFFSET 0 -1.70687 -2.19456
      CHANNELS 3 Zrotation Xrotation Yrotation
      JOINT lShin
      {
        OFFSET 0 -36.8199 0.73152
        CHANNELS 3 Zrotation Xrotation Yrotation
        JOINT lFoot
        {
          OFFSET -0.73152 -45.1104 -5.12064
          CHANNELS 3 Zrotation Xrotation Yrotation
          End Site
          {
            OFFSET 1.1221 -3.69964 12.103
          }
        }
      }
    }
  }
}
MOTION
Frames:	4
Frame Time:	0.00833333
11.3766 33.6967 30.0862 178.658 7.8753 -112.876 -15.0339 26.2608 10.4296 -3.09628 3.66696 2.98346 5.20224 -7.91932 -1.13984 2.742 -17.0808 -4.39861 -0.0 0.0 0.0 -0.0 0.0 0.0 -2.70517e-13 -5.74778e-13 1.71296e-15 57.2601 10.2006 43.5237 -27.1482 -26.846 62.2277 -2.45713 39.9313 6.75614 -1.5688e-09 9.02955e-10 -6.5861e-10 -2.72892e-09 1.5103e-09 -1.08214e-09 -1.5688e-09 9.02957e-10 -6.58617e-10 7.73091 5.47488 0.417314 -1.56881e-09 9.02955e-10 -6.5861e-10 2.90554 0.965183 0.102902 -1.5688e-09 9.02955e-10 -6.58615e-10 10.2786 0.731801 0.0259123 -1.56881e-09 9.02957e-10 -6.58614e-10 2.22167 -0.733487 -0.20892 -2.70741e-13 -5.74795e-13 1.44507e-15 -26.9455 31.7976 -45.7723 23.7417 -18.6317 -48.7702 1.41914 31.737 -4.98719 2.73311e-09 -4.37657e-10 1.39579e-09 4.74574e-09 -7.49331e-10 2.34171e-09 2.7331e-09 -4.37657e-10 1.3958e-09 -7.73091 5.47488 -0.417314 2.73311e-09 -4.37656e-10 1.3958e-09 -2.90554 0.965183 -0.102902 2.73309e-09 -4.37657e-10 1.39579e-09 -10.2786 0.731801 -0.0259123 2.73311e-09 -4.37656e-10 1.39579e-09 -2.22167 -0.733487 0.20892 -2.03217e-16 0.0 -3.88251e-19 2.94321 -45.5915 0.387818 -175.046 74.3613 175.637 2.68408 24.3893 -15.3104 2.03217e-16 0.0 3.88251e-19 153.216 -43.7398 148.661 177.495 36.2719 -177.359 3.4101 14.9203 16.9291
11.2544 33.4572 29.4647 178.89 7.9772 -112.849 -14.687 26.006 9.85669 -3.10181 3.67217 2.84045 5.38788 -7.97509 -0.838315 2.58069 -17.1659 -3.92608 -0.0 0.0 0.0 -0.0 0.0 0.0 -1.10574e-13 -6.14438e-13 4.99819e-14 57.6528 11.3812 43.5254 -27.0844 -26.6237 61.8713 -2.54305 40.4818 6.88951 -1.63452e-09 1.26728e-09 -1.16044e-09 -2.85622e-09 2.11949e-09 -1.94484e-09 -1.63452e-09 1.26728e-09 -1.16045e-09 7.73091 5.47488 0.417314 -1.63452e-09 1.26728e-09 -1.16044e-09 2.90554 0.965183 0.102902 -1.63451e-09 1.26728e-09 -1.16045e-09 10.2786 0.731801 0.0259123 -1.63453e-09 1.26728e-09 -1.16045e-09 2.22167 -0.733487 -0.20892 -1.1068e-13 -6.14449e-13 4.97583e-14 -28.8921 31.8955 -43.5049 24.1881 -19.4612 -50.2419 1.44332 31.9638 -5.03199 2.9087e-09 -2.54373e-10 1.33632e-09 5.0502e-09 -4.35758e-10 2.23379e-09 2.9087e-09 -2.54373e-10 1.33633e-09 -7.73091 5.47488 -0.417314 2.9087e-09 -2.54372e-10 1.33633e-09 -2.90554 0.965183 -0.102902 2.90869e-09 -2.54373e-10 1.33633e-09 -10.2786 0.731801 -0.0259123 2.9087e-09 -2.54372e-10 1.33633e-09 -2.22167 -0.733487 0.20892 -2.03217e-16 0.0 -3.88251e-19 2.52599 -44.7263 0.202601 -174.989 74.6236 175.599 2.57751 23.6695 -15.6217 2.03217e-16 0.0 3.88251e-19 152.44 -44.2311 148.071 177.5 36.0244 -177.37 3.46018 15.1963 17.2436
11.113 33.2149 28.8642 179.1 8.0078 -112.829 -14.299 25.8414 9.23182 -3.0626 3.62629 2.67986 5.55816 -8.02817 -0.527158 2.42246 -17.243 -3.42691 -0.0 0.0 0.0 -0.0 0.0 0.0 5.51814e-14 -6.17622e-13 9.68904e-14 57.9253 12.5701 43.5322 -27.0232 -26.4152 61.5387 -2.62007 40.9624 7.00781 -1.61558e-09 1.53867e-09 -1.57786e-09 -2.83491e-09 2.57152e-09 -2.66493e-09 -1.61558e-09 1.53868e-09 -1.57787e-09 7.73091 5.47488 0.417314 -1.61558e-09 1.53867e-09 -1.57785e-09 2.90554 0.965183 0.102902 -1.61557e-09 1.53867e-09 -1.57787e-09 10.2786 0.731801 0.0259123 -1.61559e-09 1.53867e-09 -1.57787e-09 2.22167 -0.733487 -0.20892 5.51974e-14 -6.17626e-13 9.67111e-14 -31.0846 31.6677 -41.1477 24.6697 -20.4084 -51.8856 1.48591 32.3704 -5.11203 2.8532e-09 -6.06973e-11 1.13009e-09 4.95217e-09 -1.03917e-10 1.87852e-09 2.8532e-09 -6.06957e-11 1.1301e-09 -7.73091 5.47488 -0.417314 2.8532e-09 -6.06962e-11 1.1301e-09 -2.90554 0.965183 -0.102902 2.85319e-09 -6.06963e-11 1.1301e-09 -10.2786 0.731801 -0.0259123 2.8532e-09 -6.06954e-11 1.1301e-09 -2.22167 -0.733487 0.20892 -2.03217e-16 0.0 -3.88251e-19 2.10602 -43.8506 -0.0228961 -174.938 74.8623 175.568 2.43074 22.8785 -15.8946 2.03217e-16 0.0 3.88251e-19 151.661 -44.8095 147.511 177.504 35.808 -177.387 3.53678 15.4136 17.6477
10.9597 32.9805 28.2888 179.273 7.9553 -112.822 -13.8578 25.7347 8.58539 -2.93656 3.53933 2.508 5.66103 -8.10712 -0.251514 2.30408 -17.2555 -2.96319 -0.0 0.0 0.0 -0.0 0.0 0.0 1.53422e-13 -5.70909e-13 1.23197e-13 58.0529 13.6646 43.4975 -26.9683 -26.2327 61.2514 -2.68345 41.346 7.10386 -1.50046e-09 1.5986e-09 -1.72779e-09 -2.64017e-09 2.66923e-09 -2.92728e-09 -1.50045e-09 1.5986e-09 -1.7278e-09 7.73091 5.47488 0.417314 -1.50046e-09 1.59859e-09 -1.72779e-09 2.90554 0.965183 0.102902 -1.50044e-09 1.5986e-09 -1.7278e-09 10.2786 0.731801 0.0259123 -1.50046e-09 1.5986e-09 -1.72781e-09 2.22167 -0.733487 -0.20892 1.53512e-13 -5.70909e-13 1.23048e-13 -33.213 31.0486 -39.0586 25.1874 -21.504 -53.6211 1.54461 32.931 -5.22275 2.56075e-09 2.93231e-11 8.4007e-10 4.44187e-09 5.14932e-11 1.38509e-09 2.56075e-09 2.93251e-11 8.40083e-10 -7.73091 5.47488 -0.417314 2.56075e-09 2.93241e-11 8.4008e-10 -2.90554 0.965183 -0.102902 2.56074e-09 2.93242e-11 8.40079e-10 -10.2786 0.731801 -0.0259123 2.56076e-09 2.93251e-11 8.4008e-10 -2.22167 -0.733487 0.20892 -2.03217e-16 0.0 -3.88251e-19 1.68891 -43.0614 -0.32762 -174.894 75.0732 175.549 2.24143 22.081 -16.045 2.03217e-16 0.0 3.88251e-19 151.221 -45.4606 147.304 177.506 35.6754 -177.392 3.5552 15.6459 17.951
